# xmcd
#
# Track frame offsets: 
#        150
#        12688
#        24282
#        36369
#        51589
#        65346
#        77051
#        91923
#        104257
#        116621
#        128667
#        140937
#        153627
#        165555
#        179396
#        191350
#        205309
#        218073
#        230357
#        243078
#        257722
#        268664
#        280876
#
# Disc length: 3917 seconds
#
# Revision: 0
# Processed by: cddbd v1.5.2PL0 Copyright (c) Steve Scherf et al.
# Submitted via: ExactAudioCopyFreeDBPlugin 1.0
#
DISCID=4b0f4b17
DTITLE=Selah Jubilee Singers - Complete Recorded Works Vol. 2 (1941-c.
DTITLE=1944-5)
DYEAR=1996
DGENRE=Gospel
TTITLE0=I Saw the Light
TTITLE1=Try Me One Time
TTITLE2=Walking in the Light of God
TTITLE3=Just a Closer Walk with Thee
TTITLE4=Let Us All Run to Jesus
TTITLE5=My Lord's Gonna Move This Wicked Race
TTITLE6=King Jesus Is a Rock in the Weary Land
TTITLE7=Done with the Troubles of This World
TTITLE8=The Hand Keeps On Writing
TTITLE9=Wasn't That an Awful Time at Pearl Harbor?
TTITLE10=He's So Real to Me
TTITLE11=Motherless Child When Mother Is Gone
TTITLE12=In the Army of the Lord
TTITLE13=He Knows Just How Much We Can Bear
TTITLE14=Somebody's Knockin' at Your Door
TTITLE15=Mother Don't Cry If Your Son Goes to War
TTITLE16=Let the World See Jesus in My Life
TTITLE17=It's Cool Down Yonder, by Chilly Jordan
TTITLE18=Jesus Prayed Just Before He Died
TTITLE19=I'll Fare Better in That Land
TTITLE20=Come On, Join That Number
TTITLE21=When Was Jesus Born
TTITLE22=The Lord Knows Just What I Need
EXTD=
EXTT0=
EXTT1=
EXTT2=
EXTT3=
EXTT4=
EXTT5=
EXTT6=
EXTT7=
EXTT8=
EXTT9=
EXTT10=
EXTT11=
EXTT12=
EXTT13=
EXTT14=
EXTT15=
EXTT16=
EXTT17=
EXTT18=
EXTT19=
EXTT20=
EXTT21=
EXTT22=
PLAYORDER=
